<svg width="32" height="32" viewBox="0 0 32 32" fill="none" xmlns="http://www.w3.org/2000/svg">
<path fill-rule="evenodd" clip-rule="evenodd" d="M5 4C4.44772 4 4 4.44772 4 5C4 5.55228 4.44772 6 5 6H6V11C6 11.5523 6.44772 12 7 12C7.55228 12 8 11.5523 8 11V5C8 4.44772 7.55228 4 7 4H5ZM5 16C4.44772 16 4 16.4477 4 17C4 17.5523 4.44772 18 5 18H27C27.5523 18 28 17.5523 28 17C28 16.4477 27.5523 16 27 16H5ZM4 21C4 20.4477 4.44772 20 5 20H27C27.5523 20 28 20.4477 28 21C28 21.5523 27.5523 22 27 22H5C4.44772 22 4 21.5523 4 21ZM5 24C4.44772 24 4 24.4477 4 25C4 25.5523 4.44772 26 5 26H19C19.5523 26 20 25.5523 20 25C20 24.4477 19.5523 24 19 24H5ZM16 6.5C16 6.22386 15.7761 6 15.5 6H12.5C12.2239 6 12 6.22386 12 6.5L12 9.5C12 9.77614 12.2239 10 12.5 10H14H15.5C15.7761 10 16 9.77614 16 9.5V6.5ZM12 4C10.8954 4 10 4.89543 10 6V10C10 11.1046 10.8954 12 12 12H16C17.1046 12 18 11.1046 18 10V6C18 4.89543 17.1046 4 16 4H12Z" fill="#323130"/>
</svg>
