<svg width="32" height="32" viewBox="0 0 32 32" fill="none" xmlns="http://www.w3.org/2000/svg">
<path fill-rule="evenodd" clip-rule="evenodd" d="M4 11C4 10.4477 4.44772 10 5 10H27C27.5523 10 28 10.4477 28 11C28 11.5523 27.5523 12 27 12H5C4.44772 12 4 11.5523 4 11ZM5 14C4.44772 14 4 14.4477 4 15C4 15.5523 4.44772 16 5 16H27C27.5523 16 28 15.5523 28 15C28 14.4477 27.5523 14 27 14H5ZM5 18C4.44772 18 4 18.4477 4 19C4 19.5523 4.44772 20 5 20H27C27.5523 20 28 19.5523 28 19C28 18.4477 27.5523 18 27 18H5ZM5 22C4.44772 22 4 22.4477 4 23C4 23.5523 4.44772 24 5 24H19C19.5523 24 20 23.5523 20 23C20 22.4477 19.5523 22 19 22H5Z" fill="#323130"/>
</svg>
