<svg width="32" height="32" viewBox="0 0 32 32" fill="none" xmlns="http://www.w3.org/2000/svg">
<path fill-rule="evenodd" clip-rule="evenodd" d="M9 2C6.23858 2 4 4.23858 4 7V17C4 19.7614 6.23858 22 9 22H23C25.7614 22 28 19.7614 28 17V7C28 4.23858 25.7614 2 23 2H9ZM6 7C6 5.34315 7.34315 4 9 4H23C24.6569 4 26 5.34315 26 7V17C26 18.0219 25.4891 18.9244 24.7088 19.4661C24.7082 19.4656 24.7077 19.465 24.7071 19.4645L17.1213 11.8787C15.9497 10.7071 14.0503 10.7071 12.8787 11.8787L6.34995 18.4074C6.12658 17.9877 6 17.5086 6 17V7ZM7.82474 19.761C8.18566 19.9149 8.58289 20 9 20H22.4142L15.7071 13.2929C15.3166 12.9024 14.6834 12.9024 14.2929 13.2929L7.82474 19.761ZM20 9C20 9.55228 20.4477 10 21 10C21.5523 10 22 9.55228 22 9C22 8.44772 21.5523 8 21 8C20.4477 8 20 8.44772 20 9ZM21 6C19.3431 6 18 7.34315 18 9C18 10.6569 19.3431 12 21 12C22.6569 12 24 10.6569 24 9C24 7.34315 22.6569 6 21 6ZM5 25C5 24.4477 5.44772 24 6 24H26C26.5523 24 27 24.4477 27 25C27 25.5523 26.5523 26 26 26H6C5.44772 26 5 25.5523 5 25ZM6 28C5.44772 28 5 28.4477 5 29C5 29.5523 5.44772 30 6 30H20C20.5523 30 21 29.5523 21 29C21 28.4477 20.5523 28 20 28H6Z" fill="#323130"/>
</svg>
